<mxfile host="app.diagrams.net" modified="2023-01-27T19:52:03.599Z" agent="5.0 (X11; CrOS x86_64 14989.85.0) AppleWebKit/537.36 (KHTML, like Gecko) Chrome/105.0.0.0 Safari/537.36" etag="qx71jidPcBmmV9jYcdRm" version="20.8.13" type="github">
  <diagram name="Page-1" id="ViEhA3PysZwjLcFx4vu-">
    <mxGraphModel dx="1730" dy="444" grid="1" gridSize="10" guides="1" tooltips="1" connect="1" arrows="1" fold="1" page="1" pageScale="1" pageWidth="850" pageHeight="1100" math="0" shadow="0">
      <root>
        <mxCell id="0" />
        <mxCell id="1" parent="0" />
        <mxCell id="8u1HWlOnUxgqJkglA_J--3" value="" style="edgeStyle=orthogonalEdgeStyle;rounded=0;orthogonalLoop=1;jettySize=auto;html=1;" edge="1" parent="1" source="8u1HWlOnUxgqJkglA_J--1" target="8u1HWlOnUxgqJkglA_J--2">
          <mxGeometry relative="1" as="geometry" />
        </mxCell>
        <mxCell id="8u1HWlOnUxgqJkglA_J--1" value="Statement" style="rounded=0;whiteSpace=wrap;html=1;" vertex="1" parent="1">
          <mxGeometry x="-640" y="10" width="80" height="40" as="geometry" />
        </mxCell>
        <mxCell id="8u1HWlOnUxgqJkglA_J--5" value="" style="edgeStyle=orthogonalEdgeStyle;rounded=0;orthogonalLoop=1;jettySize=auto;html=1;" edge="1" parent="1" source="8u1HWlOnUxgqJkglA_J--2" target="8u1HWlOnUxgqJkglA_J--4">
          <mxGeometry relative="1" as="geometry" />
        </mxCell>
        <mxCell id="8u1HWlOnUxgqJkglA_J--7" value="" style="edgeStyle=orthogonalEdgeStyle;rounded=0;orthogonalLoop=1;jettySize=auto;html=1;" edge="1" parent="1" source="8u1HWlOnUxgqJkglA_J--2" target="8u1HWlOnUxgqJkglA_J--6">
          <mxGeometry relative="1" as="geometry" />
        </mxCell>
        <mxCell id="8u1HWlOnUxgqJkglA_J--2" value="Condition" style="rhombus;whiteSpace=wrap;html=1;rounded=0;" vertex="1" parent="1">
          <mxGeometry x="-640" y="110" width="80" height="80" as="geometry" />
        </mxCell>
        <mxCell id="8u1HWlOnUxgqJkglA_J--4" value="Alternative" style="whiteSpace=wrap;html=1;rounded=0;" vertex="1" parent="1">
          <mxGeometry x="-760" y="213" width="80" height="40" as="geometry" />
        </mxCell>
        <mxCell id="8u1HWlOnUxgqJkglA_J--9" value="" style="edgeStyle=orthogonalEdgeStyle;rounded=0;orthogonalLoop=1;jettySize=auto;html=1;" edge="1" parent="1" source="8u1HWlOnUxgqJkglA_J--6" target="8u1HWlOnUxgqJkglA_J--8">
          <mxGeometry relative="1" as="geometry" />
        </mxCell>
        <mxCell id="8u1HWlOnUxgqJkglA_J--6" value="Consequent" style="whiteSpace=wrap;html=1;rounded=0;" vertex="1" parent="1">
          <mxGeometry x="-540" y="210" width="90" height="40" as="geometry" />
        </mxCell>
        <mxCell id="8u1HWlOnUxgqJkglA_J--11" value="" style="edgeStyle=orthogonalEdgeStyle;rounded=0;orthogonalLoop=1;jettySize=auto;html=1;" edge="1" parent="1" source="8u1HWlOnUxgqJkglA_J--8">
          <mxGeometry relative="1" as="geometry">
            <mxPoint x="-830" y="335" as="targetPoint" />
          </mxGeometry>
        </mxCell>
        <mxCell id="8u1HWlOnUxgqJkglA_J--8" value="Jump" style="whiteSpace=wrap;html=1;rounded=0;" vertex="1" parent="1">
          <mxGeometry x="-522.5" y="320" width="55" height="30" as="geometry" />
        </mxCell>
        <mxCell id="8u1HWlOnUxgqJkglA_J--16" value="" style="edgeStyle=orthogonalEdgeStyle;rounded=0;orthogonalLoop=1;jettySize=auto;html=1;" edge="1" parent="1">
          <mxGeometry relative="1" as="geometry">
            <mxPoint x="-830" y="335" as="sourcePoint" />
            <mxPoint x="-830" y="30" as="targetPoint" />
          </mxGeometry>
        </mxCell>
        <mxCell id="8u1HWlOnUxgqJkglA_J--18" value="" style="edgeStyle=orthogonalEdgeStyle;rounded=0;orthogonalLoop=1;jettySize=auto;html=1;" edge="1" parent="1">
          <mxGeometry relative="1" as="geometry">
            <mxPoint x="-830" y="30" as="sourcePoint" />
            <mxPoint x="-640" y="30" as="targetPoint" />
          </mxGeometry>
        </mxCell>
        <mxCell id="8u1HWlOnUxgqJkglA_J--21" value="" style="edgeStyle=orthogonalEdgeStyle;rounded=0;orthogonalLoop=1;jettySize=auto;html=1;" edge="1" parent="1" source="8u1HWlOnUxgqJkglA_J--19" target="8u1HWlOnUxgqJkglA_J--20">
          <mxGeometry relative="1" as="geometry" />
        </mxCell>
        <mxCell id="8u1HWlOnUxgqJkglA_J--19" value="Statement" style="rounded=0;whiteSpace=wrap;html=1;" vertex="1" parent="1">
          <mxGeometry x="-320" y="10" width="80" height="40" as="geometry" />
        </mxCell>
        <mxCell id="8u1HWlOnUxgqJkglA_J--23" value="" style="edgeStyle=orthogonalEdgeStyle;rounded=0;orthogonalLoop=1;jettySize=auto;html=1;" edge="1" parent="1" source="8u1HWlOnUxgqJkglA_J--20" target="8u1HWlOnUxgqJkglA_J--22">
          <mxGeometry relative="1" as="geometry" />
        </mxCell>
        <mxCell id="8u1HWlOnUxgqJkglA_J--25" value="" style="edgeStyle=orthogonalEdgeStyle;rounded=0;orthogonalLoop=1;jettySize=auto;html=1;" edge="1" parent="1" source="8u1HWlOnUxgqJkglA_J--20" target="8u1HWlOnUxgqJkglA_J--24">
          <mxGeometry relative="1" as="geometry" />
        </mxCell>
        <mxCell id="8u1HWlOnUxgqJkglA_J--20" value="Condition" style="rhombus;whiteSpace=wrap;html=1;rounded=0;" vertex="1" parent="1">
          <mxGeometry x="-320" y="110" width="80" height="80" as="geometry" />
        </mxCell>
        <mxCell id="8u1HWlOnUxgqJkglA_J--22" value="Alternative" style="whiteSpace=wrap;html=1;rounded=0;" vertex="1" parent="1">
          <mxGeometry x="-420" y="210" width="70" height="40" as="geometry" />
        </mxCell>
        <mxCell id="8u1HWlOnUxgqJkglA_J--24" value="Consequent" style="whiteSpace=wrap;html=1;rounded=0;" vertex="1" parent="1">
          <mxGeometry x="-210" y="210" width="90" height="40" as="geometry" />
        </mxCell>
        <mxCell id="8u1HWlOnUxgqJkglA_J--28" value="" style="edgeStyle=orthogonalEdgeStyle;rounded=0;orthogonalLoop=1;jettySize=auto;html=1;" edge="1" parent="1" source="8u1HWlOnUxgqJkglA_J--26" target="8u1HWlOnUxgqJkglA_J--27">
          <mxGeometry relative="1" as="geometry" />
        </mxCell>
        <mxCell id="8u1HWlOnUxgqJkglA_J--34" value="" style="edgeStyle=orthogonalEdgeStyle;rounded=0;orthogonalLoop=1;jettySize=auto;html=1;" edge="1" parent="1" source="8u1HWlOnUxgqJkglA_J--26" target="8u1HWlOnUxgqJkglA_J--33">
          <mxGeometry relative="1" as="geometry" />
        </mxCell>
        <mxCell id="8u1HWlOnUxgqJkglA_J--26" value="Condition" style="rhombus;whiteSpace=wrap;html=1;" vertex="1" parent="1">
          <mxGeometry x="-330" y="380" width="80" height="80" as="geometry" />
        </mxCell>
        <mxCell id="8u1HWlOnUxgqJkglA_J--30" value="" style="edgeStyle=orthogonalEdgeStyle;rounded=0;orthogonalLoop=1;jettySize=auto;html=1;" edge="1" parent="1" source="8u1HWlOnUxgqJkglA_J--27" target="8u1HWlOnUxgqJkglA_J--29">
          <mxGeometry relative="1" as="geometry" />
        </mxCell>
        <mxCell id="8u1HWlOnUxgqJkglA_J--27" value="Consequent" style="whiteSpace=wrap;html=1;" vertex="1" parent="1">
          <mxGeometry x="-200" y="470" width="90" height="50" as="geometry" />
        </mxCell>
        <mxCell id="8u1HWlOnUxgqJkglA_J--32" value="" style="edgeStyle=orthogonalEdgeStyle;rounded=0;orthogonalLoop=1;jettySize=auto;html=1;" edge="1" parent="1" source="8u1HWlOnUxgqJkglA_J--29" target="8u1HWlOnUxgqJkglA_J--31">
          <mxGeometry relative="1" as="geometry" />
        </mxCell>
        <mxCell id="8u1HWlOnUxgqJkglA_J--29" value="Statement" style="whiteSpace=wrap;html=1;" vertex="1" parent="1">
          <mxGeometry x="-197.5" y="540" width="85" height="35" as="geometry" />
        </mxCell>
        <mxCell id="8u1HWlOnUxgqJkglA_J--36" value="" style="edgeStyle=orthogonalEdgeStyle;rounded=0;orthogonalLoop=1;jettySize=auto;html=1;" edge="1" parent="1" source="8u1HWlOnUxgqJkglA_J--31">
          <mxGeometry relative="1" as="geometry">
            <mxPoint x="-495" y="616.25" as="targetPoint" />
          </mxGeometry>
        </mxCell>
        <mxCell id="8u1HWlOnUxgqJkglA_J--31" value="Jump" style="whiteSpace=wrap;html=1;" vertex="1" parent="1">
          <mxGeometry x="-192.5" y="600" width="75" height="32.5" as="geometry" />
        </mxCell>
        <mxCell id="8u1HWlOnUxgqJkglA_J--33" value="Alternative" style="whiteSpace=wrap;html=1;" vertex="1" parent="1">
          <mxGeometry x="-450" y="475" width="80" height="40" as="geometry" />
        </mxCell>
        <mxCell id="8u1HWlOnUxgqJkglA_J--38" value="" style="edgeStyle=orthogonalEdgeStyle;rounded=0;orthogonalLoop=1;jettySize=auto;html=1;" edge="1" parent="1">
          <mxGeometry relative="1" as="geometry">
            <mxPoint x="-495" y="616.25" as="sourcePoint" />
            <mxPoint x="-495" y="380" as="targetPoint" />
          </mxGeometry>
        </mxCell>
        <mxCell id="8u1HWlOnUxgqJkglA_J--40" value="" style="edgeStyle=orthogonalEdgeStyle;rounded=0;orthogonalLoop=1;jettySize=auto;html=1;" edge="1" parent="1">
          <mxGeometry relative="1" as="geometry">
            <mxPoint x="-495" y="380" as="sourcePoint" />
            <mxPoint x="-290" y="380" as="targetPoint" />
          </mxGeometry>
        </mxCell>
      </root>
    </mxGraphModel>
  </diagram>
</mxfile>
